<svg width="784" height="300" viewBox="0 0 784 300" fill="none" xmlns="http://www.w3.org/2000/svg">
<path d="M91.8047 248.506C100.176 244.755 110.883 245.334 119 249.537L120 251.537C118.563 254.162 118.562 254.162 117 256.537L114.188 255.537C108.056 253.805 101.675 253.646 95.625 255.662C91.5534 258.571 88.6132 261.698 87 266.537C86.2781 273.499 86.3742 278.965 90.418 284.819C93.6909 288.374 95.7261 290.377 100.664 290.998L104.625 290.912L108.602 290.873C112.124 290.794 112.124 290.794 115 288.537C115.582 286.112 115.582 286.112 115.688 283.412L116 278.537H105V271.537H123C123.135 274.955 123.234 278.368 123.312 281.787L123.439 284.721C123.563 291.908 123.563 291.908 120.707 295.1L118 296.537L116.148 297.584C108.719 300.53 101.297 300.636 93.75 297.975C88.7923 295.732 85.3354 292.81 82 288.537L80.6836 286.869C76.517 280.293 77.1401 271.982 78 264.537C80.2568 257.318 85.3296 252.206 91.8047 248.506ZM143 248.537C151.645 244.119 163.256 245.766 171.195 250.979C177.512 256.001 180.495 261.113 181.41 269.131C181.801 279.146 180.032 285.013 173.438 292.412L171 294.537L169.125 296.225C163.586 299.646 157.347 300.239 151 299.537C143.31 297.711 137.194 293.676 132.562 287.287C128.661 280.292 128.783 272.298 130 264.537C132.104 257.533 137.113 252.665 143 248.537ZM410 247.537C430 247.537 430 247.537 438 250.537C440.588 253.189 441.89 254.97 442.152 258.717C441.802 264.046 440.297 267.389 437 271.537L439.312 272.725C442.403 274.809 443.552 276.109 445 279.537C445.617 286.015 444.592 289.909 440.75 295.287C432.499 301.181 418.115 298.537 410 298.537V247.537ZM743 247.537C769.409 247.537 769.41 247.537 778 255.537C783.368 262.144 783.66 269.31 783 277.537C781.742 284.521 778.582 290.106 773 294.537C763.369 299.896 754.143 298.537 743 298.537V247.537ZM24 247.537C26.6067 249.861 27.9484 252.145 29.418 255.299C29.864 256.246 30.31 257.193 30.7695 258.168C31.4712 259.681 31.4716 259.681 32.1875 261.225C33.1692 263.315 34.1524 265.405 35.1367 267.494C35.6206 268.522 36.105 269.551 36.6035 270.611C38.4985 274.581 40.4937 278.497 42.5 282.412C45.1796 287.674 47.3758 292.853 49 298.537H40L37 288.537H12L10 295.537L9 298.537H0C1.27768 293.578 2.94015 289.359 5.3125 284.787C8.0753 279.401 10.7655 273.984 13.3828 268.526C13.6753 267.916 13.9682 267.305 14.2695 266.677C15.4565 264.199 16.6417 261.72 17.8242 259.239C18.6609 257.485 19.5005 255.732 20.3398 253.979C20.8283 252.955 21.3171 251.93 21.8203 250.875C23 248.537 23.0001 248.537 24 247.537ZM62 291.537H76V298.537H54V247.537H62V291.537ZM190 247.537C212.93 247.537 212.93 247.537 219.973 254.483C222.151 258.84 221.587 263.817 221 268.537C219.653 271.85 217.519 274.018 215 276.537H212C212.363 277.168 212.727 277.799 213.102 278.449C214.737 281.29 216.368 284.132 218 286.975L219.734 289.985L221.375 292.846C221.878 293.72 222.38 294.595 222.898 295.496C224 297.537 224 297.537 224 298.537H215C213.492 295.937 211.994 293.333 210.5 290.725L209.199 288.488L207.969 286.33C207.592 285.676 207.215 285.021 206.826 284.347C206 282.538 206 282.537 206 279.537H197V298.537H190V247.537ZM240 298.537H232V247.537H240V298.537ZM280 253.537H267V298.537H260V253.537H247V247.537H280V253.537ZM294 268.537H312V247.537H320V298.537H312V274.537H294V298.537H286V247.537H294V268.537ZM340.469 250.51C344.625 258.89 348.899 267.193 353.336 275.428C354.596 277.782 355.825 280.14 357 282.537L358.031 280.256C361.868 271.847 365.932 263.573 370.1 255.323C371.407 252.732 372.703 250.134 374 247.537H376C376.136 248.191 376.271 248.845 376.411 249.519C377.729 255.863 379.051 262.207 380.376 268.55C380.751 270.345 381.125 272.14 381.499 273.936C383.097 281.798 383.097 281.798 385.188 289.537C386.034 292.664 386.157 295.313 386 298.537H378L372 269.537L368.375 276.85C365.065 283.497 361.625 290.056 358 296.537H355C353.582 293.871 352.166 291.204 350.75 288.537L349.551 286.283C348.36 284.038 347.179 281.789 346 279.537L344.811 277.295L343.703 275.162L342.708 273.264C342 271.537 342 271.537 342 268.537H340L339.668 271.799C338.694 280.913 337.318 289.653 335 298.537H327C327.692 291.978 328.987 285.655 330.438 279.225C331.942 272.516 333.359 265.813 334.543 259.039C335.249 255.178 336.122 251.362 337 247.537H339L340.469 250.51ZM473.688 251.131C477.42 259.058 481.176 266.966 485.125 274.787C487.829 280.147 490.456 285.537 493 290.975C493.303 291.62 493.607 292.266 493.919 292.931C496 297.411 496 297.412 496 298.537H486L483 288.537H458L457 294.537L455 298.537H446C447.493 294.686 449.175 290.96 450.938 287.225C453.247 282.319 455.523 277.4 457.766 272.463C458.248 271.403 458.73 270.343 459.227 269.251C460.184 267.144 461.14 265.036 462.092 262.927C464.501 257.633 467.008 252.526 470 247.537H472L473.688 251.131ZM526 253.537H514V298.537H506V253.537H493V247.537H526V253.537ZM565 254.537H552V298.537H544V254.537H531V247.537H565V254.537ZM579 291.537H594V298.537H571V247.537H579V291.537ZM621 253.537H607V268.537H619V275.537H607V291.537H624V298.537H599V247.537H621V253.537ZM656 254.537H640V268.537H652V275.537H640V298.537H632V247.537H656V254.537ZM671 298.537H663V247.537H671V298.537ZM704 254.537H690V267.537H701V275.537H690V291.537H706V298.537H682V247.537H704V254.537ZM722 291.537H737V298.537H714V247.537H722V291.537ZM161.23 254.256C153.269 251.69 147.79 253.881 142 259.537C138.471 264.088 137.75 267.022 137.688 272.787C137.864 280.114 140.141 284.751 145.438 289.912C150.919 292.413 156.08 292.371 162 291.537C165.792 290.113 167.925 287.989 170.305 284.776C173.978 278.53 173.815 272.135 172.25 265.225C169.712 259.768 166.625 256.766 161.23 254.256ZM436 278.537C431.722 275.122 431.722 275.121 418 275.537V291.537L424.812 291.662C428.645 291.733 428.645 291.733 432 291.537C435 289.537 435 289.537 436.25 287.85C437.372 284.391 436.949 282.017 436 278.537ZM751 291.537C758.405 291.537 764.398 292.515 770 287.537C773.17 283.021 774.521 279.686 774.596 274.172L774.562 271.975C774.717 267.26 774.692 263.898 771.625 260.127C765.959 254.537 765.959 254.537 751 254.537V291.537ZM24 262.537C20.7179 268.751 18.0601 274.815 16 281.537H33L31 276.537L29.7812 273.24L28.5 269.787C27.3284 266.601 27.0991 264.087 24 262.537ZM467.916 267.27L467.062 269.225C465.235 273.341 463.893 277.07 463 281.537H479C479 279.256 479 279.256 477.014 274.531L476.188 272.6C474.611 268.773 473.297 265.221 470 262.537C469.303 264.113 468.606 265.69 467.916 267.27ZM213 257.537C207.666 253.024 203.917 253.163 197 253.537V272.537C202.986 272.607 207.657 273.811 212.125 269.475C214.014 266.515 214.283 265.629 214.312 262.287C214 258.537 214 258.537 213 257.537ZM431.625 255.162C426.924 253.055 426.924 253.055 418 253.537V269.537L422.875 269.6C425.688 269.636 427.475 269.8 430 268.537C432.59 265.871 433.876 264.144 434.625 260.475C434 257.537 434 257.537 431.625 255.162ZM366 13.5373C376.964 1.03371 391.394 -3.76695 407.125 3.22476C411.946 5.82874 414.977 8.47258 418.484 12.631C422.642 17.5176 425.666 20.7387 432.285 21.4552C437.031 21.6772 441.772 21.5661 446.521 21.4904C455.77 21.6672 463.521 26.2313 470 32.5373C476.493 39.7302 478.245 46.8995 477.856 56.3703C477.393 67.5421 477.394 67.5424 482.254 77.2248C484.796 79.8283 487.514 82.0963 490.363 84.3537C495.334 88.3281 497.697 93.3792 499 99.5373C499.78 111.59 498.628 119.785 491.113 129.279C489 131.537 489 131.537 486.355 133.483C482.453 136.509 479.42 139.019 478.571 144.102C478.309 148.236 478.31 152.352 478.318 156.493C478.245 167.134 475.731 174.081 468.629 182.272C462.993 187.793 457.271 191.314 449.236 191.654C447.269 191.612 445.301 191.559 443.334 191.495C432.978 191.032 432.977 191.032 423.898 195.276C421.134 197.981 418.736 200.967 416.341 203.998C411.009 210.121 403.891 212.264 396.109 212.811C383.355 213.235 377.112 210.552 367.75 201.975C366.764 201.038 365.779 200.099 364.797 199.158L362 196.537L359.812 194.233C355.477 191.62 351.219 191.978 346.25 191.975C335.085 191.922 326.367 190.342 318 182.537C311.263 175.49 307.743 168.044 307.91 158.17C307.937 157.271 307.964 156.371 307.991 155.444C308.381 146.031 308.382 146.031 304.484 137.795C302.457 135.728 300.274 133.9 298.027 132.076C291.452 126.561 287.594 118.576 286.594 110.092C286.313 99.0551 288.53 91.1653 296.258 82.9748C298.543 80.6434 300.886 78.3854 303.27 76.1544C307.052 72.529 307.109 70.7747 307.29 65.6212C307.723 53.4501 308.304 40.9109 317 31.5373C326.238 23.3684 335.576 21.2325 347.625 21.2873C355.868 21.2851 355.868 21.2851 362.875 17.4123C364.555 15.5335 364.555 15.5331 366 13.5373ZM393.496 27.2052C389.097 27.6231 389.096 27.6234 384.945 32.133C382.709 34.7272 380.46 37.2761 378.055 39.716C371.007 45.9624 364.31 48.1603 354.986 48.2248C352.677 48.1826 350.367 48.1489 348.057 48.1232L344.691 48.1388C341.666 48.0866 341.666 48.0866 339 48.5373C336.209 50.5598 335.163 51.7376 334.47 55.131C334.455 56.119 334.44 57.0783 334.426 58.0373L334.342 61.2248C334.322 63.4331 334.291 65.6418 334.248 67.8498L334.176 71.0373C334.164 72.0253 334.153 72.9846 334.142 73.9435C333.6 83.8428 327.559 90.2278 320.688 96.7248C317.192 99.8666 314.328 101.986 313.332 106.697C314 109.537 314 109.537 315.688 111.74C319.039 114.707 322.274 117.733 325.273 121.057L327.375 123.6C333.893 131.446 334.416 138.976 334.5 148.787L334.527 152.045L334.594 155.178C334.617 158.264 334.77 160.096 336.196 162.841C338 164.537 338 164.538 340.417 165.036C341.384 165.038 342.323 165.039 343.262 165.041L346.404 165.098C349.629 165.1 352.85 165.112 356.074 165.166C368.14 165.574 376.664 171.859 384.688 180.412C387.501 183.539 388.896 185.33 393.062 186.111C396 185.537 396 185.537 398.238 183.815C401.113 180.571 404.024 177.407 407.262 174.522L409.5 172.725C416.654 166.976 423.455 165.144 432.531 165.026C434.784 165.033 437.037 165.041 439.289 165.049L442.555 165.006C445.507 165.02 445.507 165.02 448 164.537C450.268 162.42 450.919 161.073 451.385 158.007L451.406 155.178L451.473 152.045C451.491 149.889 451.509 147.732 451.527 145.576C451.739 135.559 453.95 127.348 461.417 120.176C462.23 119.419 462.23 119.419 463.027 118.678C464.14 117.628 465.256 116.581 466.375 115.537C468.613 113.596 470.158 111.936 472 109.537C472.124 105.458 471.692 103.425 469.18 100.201C465.956 97.3493 462.821 94.4567 459.953 91.2443L458.125 88.9748C451.962 81.3376 451.58 73.6512 451.5 64.2248L451.473 60.9416L451.406 57.799C451.384 54.8791 451.427 53.176 449.799 50.7384C448 49.5376 448 49.5377 445.611 49.1212C444.2 49.0909 444.2 49.0904 442.816 49.0607L439.756 48.9669C437.631 48.9306 435.506 48.8863 433.381 48.8341L430.316 48.7482C428.903 48.7213 428.903 48.7218 427.518 48.6955C417.413 48.0625 410.482 42.3745 403.812 35.2873C400.547 31.6245 398.152 28.9751 393.496 27.2052Z" fill="black"/>
</svg>
